<svg height="472pt" viewBox="-4 0 472 472.12256" width="472pt" xmlns="http://www.w3.org/2000/svg"><path d="m216.0625 24h-48v32h40c4.417969 0 8 3.582031 8 8v64h32v-72c0-17.671875-14.328125-32-32-32zm0 0" fill="#394d5c"/><path d="m192.0625 40c0 22.089844-17.910156 40-40 40-22.09375 0-40-17.910156-40-40s17.90625-40 40-40c22.089844 0 40 17.910156 40 40zm0 0" fill="#36afad"/><path d="m184.0625 464c15.253906 6.027344 31.613281 8.753906 48 8 16.382812.753906 32.742188-1.972656 48-8v-48h-96zm0 0" fill="#fdbd40"/><path d="m128.0625 224s16-104 104-104 104 104 104 104zm0 0" fill="#36afad"/><path d="m352.0625 216c-39.007812-11.160156-79.433594-16.550781-120-16-40.566406-.550781-80.996094 4.839844-120 16-47.175781 57.726562-84.972656 122.519531-112 192 0 0 80 16 232 16s232-16 232-16c-27.03125-69.480469-64.828125-134.273438-112-192zm0 0" fill="#db527d"/><g fill="#fff"><path d="m232.0625 400v-16c11.007812 0 21.628906-.082031 31.871094-.246094l.253906 16c-10.316406.164063-21.027344.246094-32.125.246094zm0 0"/><path d="m280.246094 399.441406-.367188-16c55.007813-1.3125 97.597656-4.753906 126.183594-7.800781-16.683594-34.488281-36.066406-67.609375-57.960938-99.046875l13.113282-9.1875c24.542968 35.269531 46.003906 72.589844 64.132812 111.546875 1.085938 2.324219.992188 5.03125-.257812 7.277344-1.25 2.242187-3.503906 3.75-6.050782 4.050781-28.386718 3.320312-75.496093 7.640625-138.792968 9.160156zm0 0"/><path d="m336.660156 260.800781c-3.65625-4.863281-6.75-8.800781-9.136718-11.777343l12.464843-10.015626c2.472657 3.070313 5.671875 7.152344 9.457031 12.175782zm0 0"/><path d="m284.582031 195.753906c-2.703125-5.203125-5.921875-10.121094-9.601562-14.683594l12.375-10.140624c4.363281 5.382812 8.183593 11.183593 11.402343 17.316406zm0 0"/><path d="m268.1875 173.921875c-9.808594-9.105469-22.742188-14.089844-36.125-13.921875v-16c17.367188-.207031 34.152344 6.265625 46.886719 18.078125zm0 0"/></g><path d="m296.0625 296c0 35.347656-28.65625 64-64 64-35.347656 0-64-28.652344-64-64s28.652344-64 64-64c35.34375 0 64 28.652344 64 64zm0 0" fill="#fdbd40"/><path d="m264.0625 296c0 17.671875-14.328125 32-32 32-17.675781 0-32-14.328125-32-32s14.324219-32 32-32c17.671875 0 32 14.328125 32 32zm0 0" fill="#394d5c"/></svg>