<svg height="464pt" viewBox="0 0 464 464" width="464pt" xmlns="http://www.w3.org/2000/svg"><path d="m176 176h112v112h-112zm0 0" fill="#db527d"/><path d="m144 32v32c0 17.671875 14.328125 32 32 32h8l8 48h80l8-48h8c17.671875 0 32-14.328125 32-32v-32c0-17.671875-14.328125-32-32-32h-112c-17.671875 0-32 14.328125-32 32zm0 0" fill="#36afad"/><path d="m200.875 39.125c-7.351562-7.351562-17.285156-9.335938-22.1875-4.433594s-2.914062 14.832032 4.4375 22.183594c7.347656 7.351562 17.28125 9.339844 22.183594 4.4375s2.917968-14.835938-4.433594-22.1875zm0 0" fill="#fdbd40"/><path d="m285.308594 34.691406c-4.902344-4.902344-14.832032-2.917968-22.183594 4.433594s-9.339844 17.285156-4.4375 22.1875c4.902344 4.898438 14.835938 2.914062 22.1875-4.4375s9.335938-17.285156 4.433594-22.183594zm0 0" fill="#fdbd40"/><path d="m320 144v32h-32v32h64v-64zm0 0" fill="#238892"/><path d="m144 176v-32h-32v64h64v-32zm0 0" fill="#238892"/><path d="m200 216h16v16h-16zm0 0" fill="#fdbd40"/><path d="m200 248h16v16h-16zm0 0" fill="#fdbd40"/><path d="m248 216h16v16h-16zm0 0" fill="#fdbd40"/><path d="m248 248h16v16h-16zm0 0" fill="#fdbd40"/><path d="m464 416c-16-128-152-128-152-128h-160s-136 0-152 128zm0 0" fill="#394d5c"/><g fill="#fdbd40"><path d="m184 416s0 48 48 48 48-48 48-48zm0 0"/><path d="m16 416s0 48 48 48 48-48 48-48zm0 0"/><path d="m352 416s0 48 48 48 48-48 48-48zm0 0"/><path d="m272 352c0 22.089844-17.910156 40-40 40s-40-17.910156-40-40 17.910156-40 40-40 40 17.910156 40 40zm0 0"/><path d="m368 352c0 22.089844-17.910156 40-40 40s-40-17.910156-40-40 17.910156-40 40-40 40 17.910156 40 40zm0 0"/><path d="m176 352c0 22.089844-17.910156 40-40 40s-40-17.910156-40-40 17.910156-40 40-40 40 17.910156 40 40zm0 0"/></g><path d="m152 352c0 8.835938-7.164062 16-16 16s-16-7.164062-16-16 7.164062-16 16-16 16 7.164062 16 16zm0 0" fill="#394d5c"/><path d="m248 352c0 8.835938-7.164062 16-16 16s-16-7.164062-16-16 7.164062-16 16-16 16 7.164062 16 16zm0 0" fill="#394d5c"/><path d="m344 352c0 8.835938-7.164062 16-16 16s-16-7.164062-16-16 7.164062-16 16-16 16 7.164062 16 16zm0 0" fill="#394d5c"/><path d="m360 128c0 13.253906-10.746094 24-24 24s-24-10.746094-24-24 10.746094-24 24-24 24 10.746094 24 24zm0 0" fill="#db527d"/><path d="m152 128c0 13.253906-10.746094 24-24 24s-24-10.746094-24-24 10.746094-24 24-24 24 10.746094 24 24zm0 0" fill="#db527d"/></svg>