<svg height="464pt" viewBox="-48 0 464 464" width="464pt" xmlns="http://www.w3.org/2000/svg"><path d="m317.480469 387.097656c-13.664063-12.148437-21.480469-29.558594-21.480469-47.839844v-315.257812c0-13.253906-10.746094-24-24-24s-24 10.746094-24 24v40h-128v-40c0-13.253906-10.746094-24-24-24s-24 10.746094-24 24v315.257812c0 18.28125-7.816406 35.691407-21.480469 47.839844l-50.519531 44.902344c44 0 52 32 96 32s44-32 88-32 44 32 88 32 52-32 96-32zm0 0" fill="#36afad"/><path d="m248 176c0 35.347656-28.652344 64-64 64s-64-28.652344-64-64 28.652344-64 64-64 64 28.652344 64 64zm0 0" fill="#fdbd40"/><path d="m184 286.230469c-18.59375.023437-36.792969-5.371094-52.367188-15.527344l8.734376-13.40625c26.628906 16.917969 60.636718 16.917969 87.265624 0l8.734376 13.40625c-15.574219 10.15625-33.773438 15.550781-52.367188 15.527344zm0 0" fill="#394d5c"/><path d="m208 176c0 13.253906-10.746094 24-24 24s-24-10.746094-24-24 10.746094-24 24-24 24 10.746094 24 24zm0 0" fill="#db527d"/><g fill="#394d5c"><path d="m282.34375 421.65625-10.910156-10.914062c-15.054688-14.96875-23.492188-35.335938-23.433594-56.566407v-58.175781h16v58.175781c-.046875 16.984375 6.703125 33.28125 18.742188 45.257813l10.914062 10.910156zm0 0"/><path d="m248 264h16v16h-16zm0 0"/></g></svg>