<svg height="464pt" viewBox="0 -40 464.00001 464" width="464pt" xmlns="http://www.w3.org/2000/svg"><path d="m456.113281 182.6875-102.113281-17.023438c-17.644531-3.210937-33.234375-13.441406-43.199219-28.351562-17.894531-25.871094-47.34375-41.3125-78.800781-41.3125s-60.90625 15.441406-78.800781 41.3125c-9.964844 14.910156-25.554688 25.140625-43.199219 28.351562l-102.113281 17.023438c-4.550781.757812-7.89062525 4.695312-7.886719 9.3125-.00390625 4.617188 3.335938 8.554688 7.886719 9.3125l102.113281 17.023438c17.644531 3.207031 33.234375 13.4375 43.199219 28.351562 17.894531 25.871094 47.34375 41.3125 78.800781 41.3125s60.90625-15.441406 78.800781-41.3125c9.964844-14.914062 25.554688-25.144531 43.199219-28.351562l102.113281-17.023438c4.550781-.757812 7.890625-4.695312 7.886719-9.3125.003906-4.617188-3.335938-8.554688-7.886719-9.3125zm0 0" fill="#394d5c"/><path d="m280 192c0 26.507812-21.492188 48-48 48s-48-21.492188-48-48 21.492188-48 48-48 48 21.492188 48 48zm0 0" fill="#aabece"/><path d="m347.144531 144c-3.0625.003906-5.859375-1.742188-7.199219-4.496094-19.960937-41.429687-61.960937-67.695312-107.945312-67.503906-4.417969 0-8-3.582031-8-8s3.582031-8 8-8c52.109375-.207031 99.703125 29.554688 122.328125 76.496094 1.207031 2.480468 1.054687 5.410156-.410156 7.75-1.464844 2.335937-4.03125 3.757812-6.789063 3.753906zm0 0" fill="#db527d"/><path d="m121.121094 136c-1.40625.003906-2.789063-.371094-4-1.078125-3.824219-2.214844-5.132813-7.105469-2.921875-10.929687 16.71875-28.972657 43.53125-50.765626 75.304687-61.214844 2.726563-.933594 5.746094-.328125 7.898438 1.582031 2.15625 1.914063 3.117187 4.839844 2.515625 7.65625-.601563 2.820313-2.671875 5.09375-5.421875 5.960937-28.039063 9.222657-51.695313 28.457032-66.449219 54.023438-1.429687 2.476562-4.070313 4-6.925781 4zm0 0" fill="#db527d"/><path d="m232 328c-49.453125-.023438-95.007812-26.859375-119-70.105469-2.144531-3.863281-.746094-8.734375 3.121094-10.878906 3.863281-2.140625 8.734375-.746094 10.878906 3.121094 21.167969 38.160156 61.363281 61.839843 105 61.863281 32.992188.128906 64.558594-13.453125 87.144531-37.503906 3.039063-3.207032 8.105469-3.34375 11.3125-.304688 3.207031 3.039063 3.34375 8.105469.304688 11.3125-25.601563 27.25-61.371094 42.640625-98.761719 42.496094zm0 0" fill="#db527d"/><path d="m337.832031 272c-2.960937-.003906-5.679687-1.644531-7.0625-4.265625-1.382812-2.621094-1.207031-5.789063.460938-8.238281 4.808593-7.046875 8.847656-14.589844 12.050781-22.496094 1.058594-2.667969 3.464844-4.566406 6.308594-4.96875 2.839844-.40625 5.683594.742188 7.445312 3.011719 1.761719 2.265625 2.171875 5.304687 1.078125 7.957031-3.632812 8.960938-8.210937 17.511719-13.65625 25.503906-1.492187 2.191406-3.972656 3.5-6.625 3.496094zm0 0" fill="#db527d"/><path d="m424 360c0 13.253906-10.746094 24-24 24s-24-10.746094-24-24 10.746094-24 24-24 24 10.746094 24 24zm0 0" fill="#aabece"/><path d="m120 32c0 17.671875-14.328125 32-32 32s-32-14.328125-32-32 14.328125-32 32-32 32 14.328125 32 32zm0 0" fill="#aabece"/><g fill="#fdbd40"><path d="m88 320c-8.835938 0-16-7.164062-16-16s7.164062-16 16-16 16 7.164062 16 16-7.164062 16-16 16zm0-16"/><path d="m120 320h16v16h-16zm0 0"/><path d="m264 16h16v16h-16zm0 0"/><path d="m296 32h16v16h-16zm0 0"/><path d="m312 0h16v16h-16zm0 0"/></g></svg>