<svg height="464pt" viewBox="-100 0 464 464" width="464pt" xmlns="http://www.w3.org/2000/svg"><path d="m64 160v64h-40c-13.253906 0-24 10.746094-24 24v40h32v-32h64v-96zm0 0" fill="#db527d"/><path d="m208 160v64h32c13.253906 0 24 10.746094 24 24v40h-32v-32h-56v-96zm0 0" fill="#db527d"/><path d="m192 400h32l-48-128v-112h-80v112l-48 128h32v32l-16 32h64l-16-32v-56h-16l24-56h32l24 56h-16v56l-16 32h64l-16-32zm0 0" fill="#36afad"/><path d="m168 80h-64l-40-80h144zm0 0" fill="#36afad"/><path d="m112 80h48v48h-48zm0 0" fill="#db527d"/><g fill="#394d5c"><path d="m120 128h32v32h-32zm0 0"/><path d="m80 24h40v16h-40zm0 0"/><path d="m152 24h40v16h-40zm0 0"/><path d="m146.34375 221.65625-10.34375-10.34375-10.34375 10.34375-11.3125-11.3125 16-16c3.125-3.121094 8.1875-3.121094 11.3125 0l16 16zm0 0"/><path d="m144.84375 316.421875 8-15.996094 14.308594 7.152344-8 16zm0 0"/><path d="m104.839844 307.578125 14.3125-7.152344 8 15.996094-14.3125 7.15625zm0 0"/></g></svg>