<svg height="464pt" viewBox="-76 0 464 464" width="464pt" xmlns="http://www.w3.org/2000/svg"><path d="m312.003906 264.800781c0-4.859375-3.9375-8.800781-8.796875-8.800781h-47.203125c-13.253906 0-24 10.746094-24 24v48c0 4.417969-3.582031 8-8 8h-56l-32 32h104c13.257813 0 24-10.746094 24-24v-62.398438l40.9375-8.1875c4.105469-.824218 7.058594-4.425781 7.0625-8.613281zm0 0" fill="#36afad"/><path d="m104.003906 208h96v128h-96zm0 0" fill="#db527d"/><path d="m136.003906 208v64h-96v64h32v-32h96v-96zm0 0" fill="#238892"/><path d="m168.003906 208c0-32 104-80 104-80 20.054688-11.464844 32.304688-32.90625 32-56 .304688-23.09375-11.945312-44.535156-32-56 0 0-24-16-120-16s-120 16-120 16c-20.050781 11.464844-32.300781 32.90625-31.99999975 56-.30078125 23.09375 11.94921875 44.535156 31.99999975 56 0 0 104 48 104 80" fill="#36afad"/><path d="m168.003906 336h-40l-56 56 24 40h40l-24-40zm0 0" fill="#394d5c"/><path d="m136.003906 368-24 24 24 40h40l-24-40 24-24zm0 0" fill="#566a77"/><path d="m152.003906 432h-112v32h160v-32zm0 0" fill="#238892"/><g fill="#fdbd40"><path d="m176.003906 152c-9.128906-.121094-17.808594-3.996094-24-10.710938-6.1875 6.714844-14.867187 10.589844-24 10.710938-13.265625-.820312-25.113281-8.585938-31.160156-20.425781-1.988281-3.945313-.398438-8.757813 3.550781-10.746094 3.945313-1.988281 8.757813-.398437 10.746094 3.546875 3.335937 6.441406 9.660156 10.800781 16.863281 11.625 7.207032-.824219 13.53125-5.183594 16.867188-11.625 1.375-2.675781 4.125-4.363281 7.132812-4.375h.050782c3.011718.007812 5.761718 1.710938 7.117187 4.398438 3.335937 6.425781 9.644531 10.773437 16.832031 11.601562 7.207032-.824219 13.53125-5.183594 16.867188-11.625 1.988281-3.945312 6.796875-5.535156 10.746094-3.546875 3.949218 1.988281 5.535156 6.800781 3.546874 10.746094-6.046874 11.839843-17.890624 19.605469-31.160156 20.425781zm0 0"/><path d="m112.003906 80c0 13.257812-14.328125 16-32 16s-32-10.742188-32-24 14.328125-24 32-24c17.011719 1.507812 30.496094 14.988281 32 32zm0 0"/><path d="m192.003906 80c0 13.257812 14.328125 16 32 16s32-10.742188 32-24-14.328125-24-32-24c-17.007812 1.507812-30.492187 14.988281-32 32zm0 0"/></g></svg>