<svg height="464pt" viewBox="-96 0 464 464" width="464pt" xmlns="http://www.w3.org/2000/svg"><path d="m16 80s8-80 120-80 120 80 120 80v144h-240zm0 0" fill="#db527d"/><path d="m48 96v32c0 17.671875 14.328125 32 32 32h8l24 32h48l24-32h8c17.671875 0 32-14.328125 32-32v-32c0-17.671875-14.328125-32-32-32h-112c-17.671875 0-32 14.328125-32 32zm0 0" fill="#36afad"/><path d="m104.875 103.125c-7.351562-7.351562-17.285156-9.339844-22.1875-4.4375s-2.917969 14.835938 4.433594 22.1875c7.351562 7.351562 17.285156 9.335938 22.1875 4.433594s2.914062-14.832032-4.433594-22.183594zm0 0" fill="#fdbd40"/><path d="m189.308594 98.6875c-4.902344-4.902344-14.835938-2.914062-22.1875 4.4375-7.351563 7.347656-9.335938 17.28125-4.433594 22.183594s14.835938 2.917968 22.1875-4.433594 9.335938-17.285156 4.433594-22.1875zm0 0" fill="#fdbd40"/><path d="m0 224h272v32h-272zm0 0" fill="#36afad"/><path d="m120 192h32v32h-32zm0 0" fill="#238892"/><path d="m32 256h208v112h-208zm0 0" fill="#db527d"/><path d="m0 256h32v112h-32zm0 0" fill="#fdbd40"/><path d="m240 256h32v112h-32zm0 0" fill="#fdbd40"/><g fill="#36afad"><path d="m32 392c0 8.835938-7.164062 16-16 16s-16-7.164062-16-16 7.164062-16 16-16 16 7.164062 16 16zm0 0"/><path d="m272 392c0 8.835938-7.164062 16-16 16s-16-7.164062-16-16 7.164062-16 16-16 16 7.164062 16 16zm0 0"/><path d="m88 368h32v64h-32zm0 0"/></g><path d="m40 432h80v32h-80zm0 0" fill="#fdbd40"/><path d="m184 432h-32v-64h32zm0 0" fill="#36afad"/><path d="m232 464h-80v-32h80zm0 0" fill="#fdbd40"/><path d="m160 312c0 13.253906-10.746094 24-24 24s-24-10.746094-24-24 10.746094-24 24-24 24 10.746094 24 24zm0 0" fill="#fff"/><path d="m200 280h16v64h-16zm0 0" fill="#fdbd40"/><path d="m56 280h16v64h-16zm0 0" fill="#fdbd40"/><path d="m216 184h16v40h-16zm0 0" fill="#fdbd40"/></svg>