<svg height="464pt" viewBox="-36 0 464 464" width="464pt" xmlns="http://www.w3.org/2000/svg"><path d="m96 48s0-48 88-48 88 48 88 48v96h-176zm0 0" fill="#aabece"/><path d="m96 64h112v80h-112zm0 0" fill="#36afad"/><path d="m96 176v144h-16v96h-32v48h96v-80h128v-208zm0 0" fill="#aabece"/><path d="m96 312h56v16h-56zm0 0" fill="#394d5c"/><path d="m192 200v40h-16v48h48c8.835938 0 16-7.164062 16-16v-72" fill="#394d5c"/><path d="m128 240h48v48h-48zm0 0" fill="#36afad"/><path d="m272 96h112v288h-112zm0 0" fill="#36afad"/><path d="m312 384v40c0 4.417969-3.582031 8-8 8h-56c-4.417969 0-8-3.582031-8-8v-40h-32v48c0 17.671875 14.328125 32 32 32h72c17.671875 0 32-14.328125 32-32v-48zm0 0" fill="#394d5c"/><path d="m120 360v-16h-40v-24h-48v96h-32v48h48v-48h32v8h40v-16h-40v-16h40v-16h-40v-16zm0 0" fill="#394d5c"/><path d="m32 344h24v16h-24zm0 0" fill="#aabece"/><path d="m32 376h24v16h-24zm0 0" fill="#aabece"/><path d="m240 360h-56v-16h48v-32h16v40c0 4.417969-3.582031 8-8 8zm0 0" fill="#394d5c"/><path d="m152 344h16v16h-16zm0 0" fill="#394d5c"/><path d="m352 32h32v64h-32zm0 0" fill="#394d5c"/><path d="m392 24c0 13.253906-10.746094 24-24 24s-24-10.746094-24-24 10.746094-24 24-24 24 10.746094 24 24zm0 0" fill="#db527d"/><path d="m304 208h80v80h-80zm0 0" fill="#394d5c"/><g fill="#fff"><path d="m352 360h-24v-16h16v-32h16v40c0 4.417969-3.582031 8-8 8zm0 0"/><path d="m296 344h16v16h-16zm0 0"/><path d="m360 168h-16v-32h-16v-16h24c4.417969 0 8 3.582031 8 8zm0 0"/><path d="m296 120h16v16h-16zm0 0"/></g><path d="m80 144h208v32h-208zm0 0" fill="#394d5c"/></svg>