<svg height="464pt" viewBox="0 -11 464 463" width="464pt" xmlns="http://www.w3.org/2000/svg"><path d="m444.800781 298.101562-108.800781-81.601562v-160c0-17.671875-14.328125-32-32-32h-144c-17.671875 0-32 14.328125-32 32v160l-108.800781 81.601562c-12.085938 9.0625-19.199219 23.289063-19.199219 38.398438v80c0 13.253906 10.746094 24 24 24h67.671875c11.730469 0 21.746094-8.484375 23.671875-20.054688l10.023438-60.167968c1.523437-9.105469 9.402343-15.777344 18.632812-15.777344 9.226562.003906 17.105469 6.671875 18.625 15.777344l10.023438 60.167968c1.929687 11.574219 11.945312 20.058594 23.679687 20.054688h71.34375c11.730469 0 21.746094-8.484375 23.671875-20.054688l10.023438-60.167968c1.523437-9.105469 9.402343-15.777344 18.632812-15.777344 9.226562.003906 17.105469 6.671875 18.625 15.777344l10.023438 60.167968c1.929687 11.574219 11.945312 20.058594 23.679687 20.054688h67.671875c13.253906 0 24-10.746094 24-24v-80c0-15.109375-7.113281-29.335938-19.199219-38.398438zm0 0" fill="#db527d"/><path d="m64 152.5v-64h-32v96h96v-32zm0 0" fill="#fdbd40"/><path d="m400 152.5v-64h32v96h-96v-32zm0 0" fill="#fdbd40"/><path d="m66.34375 10.84375-10.34375 10.34375v-12.6875c0-4.417969-3.582031-8-8-8s-8 3.582031-8 8v12.6875l-10.34375-10.34375c-3.140625-3.03125-8.128906-2.988281-11.214844.097656-3.085937 3.085938-3.128906 8.074219-.097656 11.214844l15.257812 15.265625c-8.265624 6.195313-11.636718 16.988281-8.371093 26.789063 3.269531 9.796874 12.4375 16.410156 22.769531 16.410156s19.5-6.613282 22.769531-16.410156c3.265625-9.800782-.105469-20.59375-8.371093-26.789063l15.265624-15.265625c2.078126-2.007812 2.914063-4.984375 2.179688-7.78125-.730469-2.796875-2.914062-4.980469-5.710938-5.710938-2.796874-.734374-5.773437.101563-7.78125 2.179688zm0 0" fill="#36afad"/><path d="m445.65625 10.84375c-3.125-3.121094-8.1875-3.121094-11.3125 0l-10.34375 10.34375v-12.6875c0-4.417969-3.582031-8-8-8s-8 3.582031-8 8v12.6875l-10.34375-10.34375c-3.140625-3.03125-8.128906-2.988281-11.214844.097656-3.085937 3.085938-3.128906 8.074219-.097656 11.214844l15.257812 15.265625c-8.265624 6.195313-11.636718 16.988281-8.371093 26.789063 3.269531 9.796874 12.4375 16.410156 22.769531 16.410156s19.5-6.613282 22.769531-16.410156c3.265625-9.800782-.105469-20.59375-8.371093-26.789063l15.265624-15.265625c3.121094-3.125 3.117188-8.191406-.007812-11.3125zm0 0" fill="#36afad"/><path d="m208 88.5c0 13.253906-10.746094 24-24 24s-24-10.746094-24-24 10.746094-24 24-24 24 10.746094 24 24zm0 0" fill="#fdbd40"/><path d="m304 88.5c0 13.253906-10.746094 24-24 24s-24-10.746094-24-24 10.746094-24 24-24 24 10.746094 24 24zm0 0" fill="#fdbd40"/><g fill="#fff"><path d="m231.945312 192.5c-1.730468 0-3.417968-.5625-4.800781-1.601562l-16.535156-12.398438-16.503906 12.398438c-2.847657 2.136718-6.757813 2.136718-9.601563 0l-21.304687-16 9.601562-12.796876 16.488281 12.390626 16.519532-12.398438c2.84375-2.136719 6.753906-2.136719 9.597656 0l16.53125 12.398438 16.542969-12.390626c2.84375-2.136718 6.753906-2.136718 9.597656 0l16.5625 12.398438 16.558594-12.398438 9.601562 12.796876-21.367187 16c-2.847656 2.136718-6.757813 2.136718-9.601563 0l-16.558593-12.398438-16.53125 12.398438c-1.382813 1.039062-3.066407 1.601562-4.796876 1.601562zm0 0"/><path d="m331.199219 262.902344 9.597656-12.796875 16 12-9.597656 12.796875zm0 0"/><path d="m432 416.5h-24v-16h16v-64c-.007812-2.515625-1.191406-4.882812-3.199219-6.398438l-57.601562-43.203124 9.601562-12.796876 57.597657 43.199219c6.027343 4.546875 9.582031 11.648438 9.601562 19.199219v72c0 4.417969-3.582031 8-8 8zm0 0"/><path d="m376 400.5h16v16h-16zm0 0"/></g></svg>