<svg height="472pt" viewBox="0 -124 472.02758 472" width="472pt" xmlns="http://www.w3.org/2000/svg"><path d="m184 112.015625c0 39.761719-32.234375 72-72 72s-72-32.238281-72-72c0-39.765625 32.234375-72 72-72s72 32.234375 72 72zm0 0" fill="#fdbd40"/><path d="m0 104.015625h16v16h-16zm0 0" fill="#db527d"/><path d="m104 .015625h16v16h-16zm0 0" fill="#db527d"/><path d="m26.347656 37.667969 11.3125-11.3125 15.996094 15.996093-11.3125 11.316407zm0 0" fill="#db527d"/><path d="m26.34375 186.351562 16-15.996093 11.3125 11.3125-15.996094 16zm0 0" fill="#db527d"/><path d="m170.34375 181.667969 11.316406-11.3125 15.996094 15.996093-11.3125 11.316407zm0 0" fill="#db527d"/><path d="m170.34375 42.355469 16-16 11.3125 11.316406-15.996094 15.996094zm0 0" fill="#db527d"/><path d="m104 208.015625h16v16h-16zm0 0" fill="#db527d"/><path d="m208 32.015625h16v16h-16zm0 0" fill="#36afad"/><path d="m399.953125 120.015625c-22 0-22 16-44 16-14.097656 0-19.199219-6.570313-26.769531-11.289063 6.144531 34.28125 35.96875 59.238282 70.800781 59.238282 34.828125 0 64.65625-24.957032 70.800781-59.238282-7.585937 4.703126-12.679687 11.289063-26.785156 11.289063-22.039062 0-22.039062-16-44.046875-16zm0 0" fill="#db527d"/><path d="m399.953125 88.015625c22.007813 0 22.007813 16 44 16 9.511719-.238281 18.601563-3.964844 25.542969-10.472656-8.335938-31.558594-36.878906-53.542969-69.519532-53.542969-32.640624 0-61.183593 21.984375-69.519531 53.542969 6.929688 6.519531 16.027344 10.25 25.542969 10.472656 21.953125 0 21.953125-16 43.953125-16zm0 0" fill="#db527d"/><path d="m469.519531 93.542969c-6.933593 6.5-16.015625 10.226562-25.519531 10.472656-22.015625 0-22.015625-16-44-16s-22 16-44 16c-9.492188-.234375-18.5625-3.957031-25.480469-10.457031-2.796875 10.164062-3.238281 20.835937-1.289062 31.199218 7.570312 4.6875 12.632812 11.257813 26.769531 11.257813 21.992188 0 21.992188-16 44-16s22.007812 16 44 16c14.128906 0 19.199219-6.585937 26.839844-11.304687 1.941406-10.363282 1.5-21.035157-1.296875-31.199219zm0 0" fill="#fdbd40"/><g fill="#36afad"><path d="m240 32.015625h16v16h-16zm0 0"/><path d="m208 104.015625h16v16h-16zm0 0"/><path d="m240 104.015625h16v16h-16zm0 0"/><path d="m208 176.015625h16v16h-16zm0 0"/><path d="m240 176.015625h16v16h-16zm0 0"/><path d="m281.34375 59.574219 13.3125 8.878906 16-24c1.792969-2.6875 1.792969-6.191406 0-8.878906l-16-24-13.3125 8.878906 7.710938 11.5625h-17.054688v16h17.054688zm0 0"/><path d="m294.65625 83.574219-13.3125 8.878906 7.710938 11.5625h-17.054688v16h17.054688l-7.710938 11.558594 13.3125 8.878906 16-24c1.792969-2.6875 1.792969-6.191406 0-8.878906zm0 0"/><path d="m294.65625 155.574219-13.3125 8.878906 7.710938 11.5625h-17.054688v16h17.054688l-7.710938 11.558594 13.3125 8.878906 16-24c1.792969-2.6875 1.792969-6.191406 0-8.878906zm0 0"/></g></svg>