<svg height="464pt" viewBox="0 0 464 464" width="464pt" xmlns="http://www.w3.org/2000/svg"><path d="m432 432h-80v-352s-8-80-120-80-120 80-120 80v352h-80c-17.671875 0-32 14.328125-32 32h120c13.253906 0 24-10.746094 24-24v-144h72v136h-16c-17.671875 0-32 14.328125-32 32h56c13.253906 0 24-10.746094 24-24v-144h72v144c0 13.253906 10.746094 24 24 24h120c0-17.671875-14.328125-32-32-32zm0 0" fill="#db527d"/><path d="m272 112c0 22.089844-17.910156 40-40 40s-40-17.910156-40-40 17.910156-40 40-40 40 17.910156 40 40zm0 0" fill="#fdbd40"/><path d="m232 128c-8.835938 0-16-7.164062-16-16s7.164062-16 16-16 16 7.164062 16 16-7.164062 16-16 16zm0-16" fill="#394d5c"/><path d="m320 90.398438c-3.835938-.003907-7.128906-2.726563-7.847656-6.496094-1.417969-7.300782-11.90625-43.902344-80.152344-43.902344-10.1875-.085938-20.355469.882812-30.34375 2.886719-4.332031.914062-8.585938-1.855469-9.5-6.1875s1.855469-8.585938 6.1875-9.5c11.078125-2.222657 22.355469-3.296875 33.65625-3.199219 80.800781 0 94.03125 47.414062 95.855469 56.921875.441406 2.335937-.183594 4.75-1.703125 6.582031-1.515625 1.832032-3.773438 2.894532-6.152344 2.894532zm0 0" fill="#fdbd40"/><path d="m160 62.503906c-3.277344 0-6.222656-1.996094-7.433594-5.039062-1.214844-3.042969-.449218-6.515625 1.929688-8.769532 5.332031-4.988281 11.34375-9.195312 17.855468-12.496093 3.933594-2.015625 8.757813-.457031 10.773438 3.476562 2.015625 3.933594.457031 8.757813-3.476562 10.773438-5.164063 2.59375-9.929688 5.917969-14.152344 9.863281-1.484375 1.40625-3.453125 2.191406-5.496094 2.191406zm0 0" fill="#fdbd40"/><path d="m144 208h176v48h-176zm0 0" fill="#36afad"/><g fill="#fff"><path d="m168 208h16v24h-16zm0 0"/><path d="m200 208h16v24h-16zm0 0"/><path d="m248 208h16v24h-16zm0 0"/><path d="m280 208h16v24h-16zm0 0"/></g></svg>