<svg height="464pt" viewBox="0 -16 464.00014 464" width="464pt" xmlns="http://www.w3.org/2000/svg"><path d="m32 80h32v104h-32zm0 0" fill="#394d5c"/><path d="m96 48c0 26.507812-21.492188 48-48 48s-48-21.492188-48-48 21.492188-48 48-48 48 21.492188 48 48zm0 0" fill="#fdbd40"/><path d="m64 48c0 8.835938-7.164062 16-16 16s-16-7.164062-16-16 7.164062-16 16-16 16 7.164062 16 16zm0 0" fill="#394d5c"/><path d="m24 160s215.742188 38.527344 427.945312 221.449219c7.683594 6.679687 12.082032 16.371093 12.054688 26.550781 0 13.253906-10.746094 24-24 24h-424c-8.835938 0-16-7.164062-16-16v-232c0-13.253906 10.746094-24 24-24zm0 0" fill="#db527d"/><path d="m144 296v56h-48l-32-16v64l32-16h80v-88" fill="#fff"/><path d="m32 336h32v32h-32zm0 0" fill="#394d5c"/><path d="m32 368h32v32h-32zm0 0" fill="#fdbd40"/><path d="m0 256h64l-8 32h-56zm0 0" fill="#fdbd40"/><path d="m216 272h16v16h-16zm0 0" fill="#fff"/><path d="m248 304h16v16h-16zm0 0" fill="#fff"/><path d="m296 320h16v16h-16zm0 0" fill="#fff"/><path d="m328 352h16v16h-16zm0 0" fill="#fff"/><g fill="#394d5c"><path d="m232 152h112v16h-112zm0 0"/><path d="m264 184h112v16h-112zm0 0"/><path d="m360 152h32v16h-32zm0 0"/><path d="m392 184h32v16h-32zm0 0"/></g></svg>