<svg height="480pt" viewBox="0 -8 480 480" width="480pt" xmlns="http://www.w3.org/2000/svg"><path d="m278.054688 193.945312 81.945312-81.945312h-240l81.945312 81.945312c9 9 14.054688 21.207032 14.054688 33.933594v8.242188c0 12.726562-5.054688 24.933594-14.054688 33.933594l-81.945312 81.945312h240l-81.945312-81.945312c-9-9-14.054688-21.207032-14.054688-33.933594v-8.242188c0-12.726562 5.054688-24.933594 14.054688-33.933594zm0 0" fill="#aabece"/><path d="m376 80c0-44.183594-60.890625-80-136-80s-136 35.816406-136 80 60.890625 80 136 80 136-35.816406 136-80zm0 0" fill="#394d5c"/><path d="m344 80c0-26.507812-46.5625-48-104-48s-104 21.492188-104 48 46.5625 48 104 48 104-21.492188 104-48zm0 0" fill="#aabece"/><path d="m306.097656 80c0-8.835938-29.59375-16-66.097656-16s-66.097656 7.164062-66.097656 16 29.59375 16 66.097656 16 66.097656-7.164062 66.097656-16zm0 0" fill="#394d5c"/><path d="m376 384c0-44.183594-60.890625-80-136-80s-136 35.816406-136 80 60.890625 80 136 80 136-35.816406 136-80zm0 0" fill="#394d5c"/><path d="m344 384c0-26.507812-46.5625-48-104-48s-104 21.492188-104 48 46.5625 48 104 48 104-21.492188 104-48zm0 0" fill="#aabece"/><path d="m306.097656 384c0-8.835938-29.59375-16-66.097656-16s-66.097656 7.164062-66.097656 16 29.59375 16 66.097656 16 66.097656-7.164062 66.097656-16zm0 0" fill="#394d5c"/><g fill="#db527d"><path d="m80 360c-8.835938 0-16-7.164062-16-16s7.164062-16 16-16 16 7.164062 16 16-7.164062 16-16 16zm0-16"/><path d="m352 200h16v16h-16zm0 0"/><path d="m368 168h16v16h-16zm0 0"/><path d="m32 408h16v16h-16zm0 0"/><path d="m64 160h16v16h-16zm0 0"/></g><path d="m48 80c0 13.253906-10.746094 24-24 24s-24-10.746094-24-24 10.746094-24 24-24 24 10.746094 24 24zm0 0" fill="#aabece"/><path d="m480 56c0 17.671875-14.328125 32-32 32s-32-14.328125-32-32 14.328125-32 32-32 32 14.328125 32 32zm0 0" fill="#aabece"/><path d="m416 136c-8.835938 0-16-7.164062-16-16s7.164062-16 16-16 16 7.164062 16 16-7.164062 16-16 16zm0-16" fill="#db527d"/><path d="m432 424h16v16h-16zm0 0" fill="#db527d"/></svg>