<svg height="464pt" viewBox="0 -24 464 464" width="464pt" xmlns="http://www.w3.org/2000/svg"><path d="m352 384h-240l-112-96h464zm0 0" fill="#fdbd40"/><path d="m112 384h240v32h-240zm0 0" fill="#db527d"/><path d="m344 360h-64v-16h61.191406l77.808594-62.246094 10 12.492188-80 64c-1.417969 1.136718-3.183594 1.753906-5 1.753906zm0 0" fill="#394d5c"/><path d="m232 344h32v16h-32zm0 0" fill="#394d5c"/><path d="m328 64s-8-64-96-64-96 64-96 64l-8 64h208zm0 0" fill="#36afad"/><path d="m0 256h464v32h-464zm0 0" fill="#db527d"/><path d="m464 256c-22.929688-45.738281-63.292969-80.335938-112-96h-240c-48.707031 15.664062-89.070312 50.261719-112 96zm0 0" fill="#fdbd40"/><path d="m112 128h240v32h-240zm0 0" fill="#db527d"/><path d="m289.824219 80.988281 15.878906-1.980469 1.996094 16.003907-15.878907 1.980469zm0 0" fill="#fff"/><path d="m287.542969 66.640625c-2.800781-8-13.832031-26.640625-55.542969-26.640625v-16c51.960938 0 66.710938 26.128906 70.648438 37.359375zm0 0" fill="#fff"/><g fill="#394d5c"><path d="m104 184h32v16h-32zm0 0"/><path d="m104 216h32v16h-32zm0 0"/><path d="m328 184h32v16h-32zm0 0"/><path d="m328 216h32v16h-32zm0 0"/></g></svg>