<svg height="464pt" viewBox="0 -11 464 463" width="464pt" xmlns="http://www.w3.org/2000/svg"><g fill="#fdbd40"><path d="m272 208.5s0 56-40 88c-40-32-40-88-40-88zm0 0"/><path d="m216 408.5c-4.417969 0-8-3.582031-8-8v-68.414062c-63.503906-57.523438-56.28125-121.824219-55.9375-124.578126.65625-4.28125 4.597656-7.261718 8.894531-6.730468 4.296875.535156 7.390625 4.386718 6.980469 8.699218-.304688 2.582032-6.402344 60.800782 53.328125 113 1.738281 1.519532 2.734375 3.714844 2.734375 6.023438v72c0 4.417969-3.582031 8-8 8zm0 0"/><path d="m247.679688 440.5c-4.417969 0-8-3.582031-8-8v-104c0-2.308594.996093-4.503906 2.734374-6.023438 60.097657-52.59375 53.402344-112.382812 53.328126-112.984374-.433594-4.324219 2.65625-8.203126 6.96875-8.742188s8.265624 2.460938 8.90625 6.757812c.34375 2.753907 7.558593 67.054688-55.9375 124.578126v100.414062c0 4.417969-3.582032 8-8 8zm0 0"/></g><path d="m0 128.5h464v32h-464zm0 0" fill="#394d5c"/><path d="m464 128.5h-464l144-48h176zm0 0" fill="#db527d"/><path d="m320 80.5h-176l24-48h128zm0 0" fill="#36afad"/><path d="m168 32.5c15.707031-19.414062 39.042969-31.082031 64-32 24.957031.917969 48.292969 12.585938 64 32zm0 0" fill="#db527d"/><path d="m312 208.5h-160l-40-48h240zm0 0" fill="#db527d"/><path d="m184 56.5h16v24h-16zm0 0" fill="#fff"/><path d="m232 48.5h16v16h-16zm0 0" fill="#fff"/><path d="m264 32.5h16v24h-16zm0 0" fill="#fff"/><path d="m216 160.5h16v24h-16zm0 0" fill="#36afad"/><path d="m264 160.5h16v24h-16zm0 0" fill="#36afad"/><path d="m168 184.5h16v24h-16zm0 0" fill="#36afad"/></svg>