<svg height="464pt" viewBox="0 -24 464 464" width="464pt" xmlns="http://www.w3.org/2000/svg"><path d="m0 304h464v32h-464zm0 0" fill="#fdbd40"/><path d="m232 0c-80 0-80 64-80 64v112h160v-112s0-64-80-64zm0 0" fill="#36afad"/><path d="m464 304c-16-128-152-128-152-128h-160s-136 0-152 128zm0 0" fill="#db527d"/><path d="m184 368s0 48 48 48 48-48 48-48zm0 0" fill="#394d5c"/><path d="m16 368s0 48 48 48 48-48 48-48zm0 0" fill="#394d5c"/><path d="m352 368s0 48 48 48 48-48 48-48zm0 0" fill="#394d5c"/><path d="m272 240c0 22.089844-17.910156 40-40 40s-40-17.910156-40-40 17.910156-40 40-40 40 17.910156 40 40zm0 0" fill="#fdbd40"/><path d="m232 256c-8.835938 0-16-7.164062-16-16s7.164062-16 16-16 16 7.164062 16 16-7.164062 16-16 16zm0-16" fill="#fff"/><path d="m272 120h16v56h-16zm0 0" fill="#fff"/><path d="m272 88h16v16h-16zm0 0" fill="#fff"/><path d="m288 72h-16v-8c0-5.601562-2.878906-24-40-24v-16c54.398438 0 56 35.902344 56 40zm0 0" fill="#fff"/><g fill="#394d5c"><path d="m160 232h16v16h-16zm0 0"/><path d="m128 232h16v16h-16zm0 0"/><path d="m288 232h16v16h-16zm0 0"/><path d="m320 232h16v16h-16zm0 0"/></g><path d="m48 336h32v32h-32zm0 0" fill="#aabece"/><path d="m216 336h32v32h-32zm0 0" fill="#aabece"/><path d="m384 336h32v32h-32zm0 0" fill="#aabece"/></svg>