<svg height="464pt" viewBox="0 -96 464 464" width="464pt" xmlns="http://www.w3.org/2000/svg"><path d="m56 240h96l24-96h32l-32 128h-128zm0 0" fill="#fdbd40"/><path d="m128 144h-96l-32-24 32-120h96zm0 0" fill="#db527d"/><path d="m176 0h240v96h-240zm0 0" fill="#db527d"/><path d="m80 272h-80l40-128h72zm0 0" fill="#36afad"/><path d="m128 16h48v80h-48zm0 0" fill="#fdbd40"/><path d="m176 96h272v48h-272zm0 0" fill="#36afad"/><path d="m448 16c10.003906 10.953125 15.691406 25.167969 16 40-.308594 14.832031-5.996094 29.046875-16 40h-32v-80zm0 0" fill="#fdbd40"/><path d="m264 48c0 22.089844-17.910156 40-40 40s-40-17.910156-40-40 17.910156-40 40-40 40 17.910156 40 40zm0 0" fill="#fdbd40"/><path d="m240 48c0 8.835938-7.164062 16-16 16s-16-7.164062-16-16 7.164062-16 16-16 16 7.164062 16 16zm0 0" fill="#394d5c"/><path d="m288 32h128v32h-128zm0 0" fill="#394d5c"/><g fill="#fff"><path d="m104 72h-16v-32h-32v-16h40c4.417969 0 8 3.582031 8 8zm0 0"/><path d="m88 88h16v16h-16zm0 0"/></g></svg>