<svg height="464pt" viewBox="0 0 464 464" width="464pt" xmlns="http://www.w3.org/2000/svg"><path d="m440 384-32-64h-32l-16 32h-40l-40 80-32-64h-32l-28 56-12-24h-16l-16 32-48-80h-48l-48 80v32h464v-80zm0 0" fill="#fdbd40"/><path d="m192 48s0-48 40-48 40 48 40 48zm0 0" fill="#36afad"/><g fill="#394d5c"><path d="m24.980469 428.050781 24.027343-39.980469 13.710938 8.242188-24.023438 39.976562zm0 0"/><path d="m440 440h-56c-4.417969 0-8-3.582031-8-8v-40h16v32h48zm0 0"/><path d="m304 424h16v16h-16zm0 0"/><path d="m336 408h16v16h-16zm0 0"/><path d="m80 424h32v16h-32zm0 0"/><path d="m216 416h16v16h-16zm0 0"/></g><path d="m368 112h-272l96-64h80zm0 0" fill="#db527d"/><path d="m112 112c7.808594 22.503906 25.496094 40.191406 48 48h144c22.503906-7.808594 40.191406-25.496094 48-48zm0 0" fill="#36afad"/><path d="m160 160-16 48 48-48zm0 0" fill="#db527d"/><path d="m96 208h80v32h-80zm0 0" fill="#394d5c"/><path d="m304 160 16 48-48-48zm0 0" fill="#db527d"/><path d="m368 240h-80v-32h80zm0 0" fill="#394d5c"/><path d="m208 160h48v32h-48zm0 0" fill="#db527d"/><path d="m248 296c-4.417969 0-8-3.582031-8-8v-48c-.015625-3.046875 1.699219-5.839844 4.425781-7.199219 6.40625-3.332031 10.742188-9.628906 11.574219-16.800781.140625-5.597656-1.242188-11.128906-4-16h-40c-2.75 4.875-4.132812 10.402344-4 16 .824219 7.207031 5.183594 13.527344 11.625 16.863281 2.667969 1.382813 4.355469 4.128907 4.375 7.136719v32c0 4.417969-3.582031 8-8 8s-8-3.582031-8-8v-27.585938c-9.632812-6.308593-15.597656-16.90625-16-28.414062-.46875-10.84375 3.230469-21.457031 10.34375-29.65625 1.5-1.5 3.535156-2.34375 5.65625-2.34375h48c2.121094 0 4.15625.84375 5.65625 2.34375 7.113281 8.199219 10.8125 18.8125 10.34375 29.65625-.402344 11.507812-6.367188 22.105469-16 28.414062v43.585938c0 4.417969-3.582031 8-8 8zm0 0" fill="#fdbd40"/></svg>