<svg height="464pt" viewBox="0 -96 464 464" width="464pt" xmlns="http://www.w3.org/2000/svg"><path d="m176 128v40c0 13.253906-10.746094 24-24 24h-64v32h72c26.507812 0 48-21.492188 48-48v-48zm0 0" fill="#fdbd40"/><path d="m384 48 48-48v128l-48-48zm0 0" fill="#db527d"/><path d="m208 0h-176l-32 72 32 56h176l48-48v-32zm0 0" fill="#db527d"/><path d="m256 48h32v32h-32zm0 0" fill="#36afad"/><path d="m320 48h32v32h-32zm0 0" fill="#36afad"/><path d="m288 32h32v64h-32zm0 0" fill="#fdbd40"/><path d="m352 32h32v64h-32zm0 0" fill="#fdbd40"/><path d="m464 128h-32v-128h32zm0 0" fill="#36afad"/><path d="m96 272h-64l48-144h64zm0 0" fill="#36afad"/><path d="m64 40h48v48h-48zm0 0" fill="#394d5c"/><path d="m112 40h48v48h-48zm0 0" fill="#fdbd40"/><path d="m160 40h48v48h-48zm0 0" fill="#394d5c"/></svg>