<svg height="464pt" viewBox="-48 0 464 464" width="464pt" xmlns="http://www.w3.org/2000/svg"><path d="m72 168v96c0 4.417969-3.582031 8-8 8h-32c-17.671875 0-32 14.328125-32 32h72c17.671875 0 32-14.328125 32-32v-128h-8c-13.253906 0-24 10.746094-24 24zm0 0" fill="#db527d"/><path d="m296 168v96c0 4.417969 3.582031 8 8 8h32c17.671875 0 32 14.328125 32 32h-72c-17.671875 0-32-14.328125-32-32v-128h8c13.253906 0 24 10.746094 24 24zm0 0" fill="#db527d"/><path d="m96 32v32c0 17.671875 14.328125 32 32 32h8l32 16h32l32-16h8c17.671875 0 32-14.328125 32-32v-32c0-17.671875-14.328125-32-32-32h-112c-17.671875 0-32 14.328125-32 32zm0 0" fill="#36afad"/><path d="m336 432h-72v-288h-160v288h-72c-17.671875 0-32 14.328125-32 32h112c13.253906 0 24-10.746094 24-24v-120h32v120c0 13.253906 10.746094 24 24 24h24v-16c0-8.835938-7.164062-16-16-16v-112h32v120c0 13.253906 10.746094 24 24 24h112c0-17.671875-14.328125-32-32-32zm0 0" fill="#36afad"/><g fill="#fdbd40"><path d="m152.875 39.125c-7.351562-7.351562-17.285156-9.335938-22.1875-4.433594s-2.914062 14.832032 4.4375 22.183594c7.347656 7.351562 17.28125 9.339844 22.183594 4.4375s2.917968-14.835938-4.433594-22.1875zm0 0"/><path d="m237.308594 34.691406c-4.902344-4.902344-14.832032-2.917968-22.183594 4.433594s-9.339844 17.285156-4.4375 22.1875c4.902344 4.898438 14.835938 2.914062 22.1875-4.4375s9.335938-17.285156 4.433594-22.183594zm0 0"/><path d="m128 248h32v16h-32zm0 0"/><path d="m128 280h32v16h-32zm0 0"/><path d="m128 216h32v16h-32zm0 0"/><path d="m208 248h32v16h-32zm0 0"/><path d="m208 280h32v16h-32zm0 0"/><path d="m208 216h32v16h-32zm0 0"/><path d="m170.34375 197.65625-13.65625-13.65625h-28.6875v-16h32c2.121094 0 4.15625.84375 5.65625 2.34375l16 16zm0 0"/><path d="m197.65625 197.65625-11.3125-11.3125 16-16c1.5-1.5 3.535156-2.34375 5.65625-2.34375h32v16h-28.6875zm0 0"/></g></svg>