<svg height="464pt" viewBox="0 -28 464 464" width="464pt" xmlns="http://www.w3.org/2000/svg"><path d="m232 232c30.929688 0 56 25.070312 56 56v8h-112v-8c0-30.929688 25.070312-56 56-56zm0 0" fill="#36afad"/><path d="m144 96v-24c0-26.507812-21.492188-48-48-48s-48 21.492188-48 48v40c0-13.253906-10.746094-24-24-24s-24 10.746094-24 24v24h144zm0 0" fill="#aabece"/><path d="m320 200h144v-24c0-13.253906-10.746094-24-24-24s-24 10.746094-24 24v-24c0-26.507812-21.492188-48-48-48s-48 21.492188-48 48zm0 0" fill="#aabece"/><path d="m360 360h-256l72-64h112zm0 0" fill="#db527d"/><path d="m224 360-64 48v-48zm0 0" fill="#fdbd40"/><path d="m248 360 64 48v-48zm0 0" fill="#fdbd40"/><g fill="#394d5c"><path d="m208 48h16v144h-16zm0 0"/><path d="m240 32h16v144h-16zm0 0"/><path d="m240 0h16v16h-16zm0 0"/><path d="m192.84375 292.425781 16-32 14.308594 7.15625-16 31.996094zm0 0"/><path d="m224.839844 292.417969 16-32 14.3125 7.15625-16 32zm0 0"/></g></svg>