<svg height="464pt" viewBox="-136 0 464 464" width="464pt" xmlns="http://www.w3.org/2000/svg"><path d="m160 288h-144l88-144h56zm0 0" fill="#db527d"/><path d="m32 0v80h-32v48h32v16h160v-144zm0 0" fill="#36afad"/><path d="m144 104c-11.480469 0-22.40625-4.933594-30-13.542969-2.921875-3.316406-2.605469-8.371093.707031-11.292969 3.316407-2.921874 8.371094-2.605468 11.292969.707032 6.601562 7.488281 17.148438 10.109375 26.484375 6.578125 9.339844-3.527344 15.519531-12.46875 15.519531-22.449219s-6.179687-18.921875-15.519531-22.449219c-9.335937-3.53125-19.882813-.910156-26.484375 6.578125-2.921875 3.3125-7.976562 3.628906-11.292969.707032-3.3125-2.921876-3.628906-7.976563-.707031-11.292969 12.179688-13.8125 32.21875-17.523438 48.535156-8.988281 16.320313 8.53125 24.703125 27.105468 20.3125 44.988281-4.394531 17.882812-20.433594 30.457031-38.847656 30.457031zm0 0" fill="#fdbd40"/><path d="m80 40c0 8.839844-7.160156 24-16 24-8.835938 0-16-7.164062-16-16s7.164062-16 16-16c8.839844 0 16-.800781 16 8zm0 0" fill="#fdbd40"/><path d="m120 216h16v72h-16zm0 0" fill="#fff"/><path d="m112 288h64v32h-64zm0 0" fill="#fdbd40"/><path d="m112 320-16 8v24h16v16h64v-48zm0 0" fill="#394d5c"/><path d="m0 288h112v32h-112zm0 0" fill="#238892"/><path d="m16 320 88 80h40v-32h-32v-16h-16v-24l16-8zm0 0" fill="#db527d"/><path d="m88 400h72v32h-72zm0 0" fill="#238892"/><path d="m72 432h88v32h-112v-8c0-13.253906 10.746094-24 24-24zm0 0" fill="#394d5c"/></svg>