<svg height="480pt" viewBox="0 -4 480.30977 480" width="480pt" xmlns="http://www.w3.org/2000/svg"><path d="m290.996094 392.15625c-30.125 0-41.878906-11.921875-57.6875-21.210938-11.289063 32.546876-17.035156 66.761719-17 101.210938h256v-81.328125c-34.023438-6.015625-39.328125-30.671875-82.621094-30.671875-49.378906 0-49.378906 32-98.691406 32zm0 0" fill="#db527d"/><path d="m389.6875 312.15625c43.292969 0 48.597656 24.65625 82.621094 30.671875v-174.671875c-95.976563 17.097656-178.4375 78.097656-222.878906 164.871094 12.46875 7.699218 26.921874 11.570312 41.566406 11.128906 49.3125 0 49.3125-32 98.691406-32zm0 0" fill="#db527d"/><path d="m40.308594 232.15625s16-96 96-96 96 96 96 96zm0 0" fill="#36afad"/><path d="m290.996094 392.15625c49.34375 0 49.34375-32 98.691406-32 43.292969 0 48.597656 24.65625 82.621094 30.671875v-48c-34.023438-6.015625-39.328125-30.671875-82.621094-30.671875-49.378906 0-49.378906 32-98.691406 32-14.65625.445312-29.121094-3.421875-41.597656-11.128906-6.222657 12.261718-11.609376 24.929687-16.121094 37.917968 15.832031 9.289063 27.59375 21.210938 57.71875 21.210938zm0 0" fill="#fdbd40"/><path d="m416.308594 240.15625h16v16h-16zm0 0" fill="#fff"/><path d="m400.308594 272.15625h16v16h-16zm0 0" fill="#fff"/><path d="m288.308594 432.15625h16v16h-16zm0 0" fill="#fff"/><path d="m8.308594 232.15625h256v32h-256zm0 0" fill="#fdbd40"/><path d="m8.308594 432.15625c-4.417969.167969-8.136719-3.277344-8.30468775-7.699219-.16796825-4.417969 3.28124975-8.132812 7.69921875-8.300781 58.40625-4.875 110.238281-39.339844 137.328125-91.3125 1.886719-3.917969 6.558594-5.609375 10.515625-3.808594 3.960937 1.800782 5.753906 6.433594 4.042969 10.433594-29.144532 57.613281-86.285156 95.796875-150.664063 100.6875-.207031 0-.425781 0-.617187 0zm0 0" fill="#394d5c"/><path d="m24.308594 392.15625c-4.214844-.015625-7.699219-3.300781-7.957032-7.507812-.261718-4.210938 2.789063-7.898438 6.972657-8.429688 33.902343-3.328125 64.238281-22.472656 81.832031-51.640625 1.976562-3.953125 6.78125-5.558594 10.738281-3.582031 3.953125 1.972656 5.558594 6.78125 3.582031 10.734375-19.867187 34.085937-54.90625 56.542969-94.175781 60.359375-.328125.042968-.660156.0625-.992187.066406zm0 0" fill="#394d5c"/><path d="m179.863281 204.226562c-2.660156-4.578124-5.808593-8.855468-9.394531-12.75l11.679688-10.921874c4.382812 4.746093 8.238281 9.953124 11.496093 15.527343zm0 0" fill="#fdbd40"/><path d="m163.511719 185.15625c-7.816407-5.941406-17.386719-9.109375-27.203125-9v-16c13.285156-.121094 26.230468 4.183594 36.800781 12.230469zm0 0" fill="#fdbd40"/><path d="m216.308594 296.15625h-160l-16-32h192zm0 0" fill="#394d5c"/><g fill="#36afad"><path d="m480.308594 32.15625c0 17.671875-14.324219 32-32 32-17.671875 0-32-14.328125-32-32 0-17.675781 14.328125-32 32-32 17.675781 0 32 14.324219 32 32zm0 0"/><path d="m288.308594 120.15625c0 13.253906-10.742188 24-24 24-13.253906 0-24-10.746094-24-24 0-13.257812 10.746094-24 24-24 13.257812 0 24 10.742188 24 24zm0 0"/><path d="m112.308594 80.15625c-8.835938 0-16-7.164062-16-16 0-8.839844 7.164062-16 16-16 8.835937 0 16 7.160156 16 16 0 8.835938-7.164063 16-16 16zm0-16"/><path d="m80.308594 464.15625c-8.835938 0-16-7.164062-16-16 0-8.839844 7.164062-16 16-16 8.835937 0 16 7.160156 16 16 0 8.835938-7.164063 16-16 16zm0-16"/></g></svg>