<svg height="464pt" viewBox="0 0 464 464" width="464pt" xmlns="http://www.w3.org/2000/svg"><path d="m0 0h464v288h-464zm0 0" fill="#36afad"/><path d="m208 352h48v80h-48zm0 0" fill="#aabece"/><path d="m168 432h128c17.671875 0 32 14.328125 32 32h-192c0-17.671875 14.328125-32 32-32zm0 0" fill="#394d5c"/><path d="m96 192h-.046875c-3.59375-.019531-6.730469-2.429688-7.671875-5.894531l-18.488281-67.800781-14.59375 29.269531c-1.359375 2.726562-4.152344 4.441406-7.199219 4.425781h-48v-16h43.054688l21.785156-43.574219c1.480468-2.972656 4.644531-4.722656 7.949218-4.394531 3.300782.328125 6.0625 2.660156 6.929688 5.863281l16.457031 60.351563 24.128907-84.4375c.9375-3.527344 4.1875-5.933594 7.832031-5.808594 3.621093.0625 6.746093 2.550781 7.625 6.0625l18.75 75.015625 6.328125-12.652344c1.355468-2.714843 4.128906-4.425781 7.160156-4.425781h107.054688l21.746093-43.574219c1.480469-2.972656 4.644531-4.722656 7.945313-4.394531 3.304687.328125 6.0625 2.660156 6.933594 5.863281l16.457031 60.351563 24.128906-84.4375c1.023437-3.480469 4.242187-5.855469 7.871094-5.808594 3.621093.0625 6.746093 2.550781 7.625 6.0625l18.75 75.015625 6.328125-12.652344c1.355468-2.714843 4.128906-4.425781 7.160156-4.425781h64v16h-59.054688l-13.746093 27.574219c-1.488281 3-4.6875 4.753906-8.015625 4.394531-3.328125-.355469-6.082032-2.746094-6.902344-5.992188l-16.753906-67.015624-23.832032 83.230468c-.980468 3.4375-4.121093 5.808594-7.695312 5.808594h-.046875c-3.59375-.019531-6.730469-2.429688-7.671875-5.894531l-18.488281-67.800781-14.59375 29.269531c-1.359375 2.726562-4.152344 4.441406-7.199219 4.425781h-107.054688l-13.746093 27.574219c-1.488281 3-4.6875 4.753906-8.015625 4.394531-3.328125-.355469-6.082032-2.746094-6.902344-5.992188l-16.753906-67.015624-23.832032 83.230468c-.980468 3.4375-4.121093 5.808594-7.695312 5.808594zm0 0" fill="#fdbd40"/><path d="m232 264h-32c-4.417969 0-8-3.582031-8-8v-48c0-4.417969 3.582031-8 8-8h32c4.417969 0 8 3.582031 8 8v48c0 4.417969-3.582031 8-8 8zm-24-16h16v-32h-16zm0 0" fill="#fdbd40"/><path d="m288 264h-32c-4.417969 0-8-3.582031-8-8v-48c0-4.417969 3.582031-8 8-8h32c4.417969 0 8 3.582031 8 8v48c0 4.417969-3.582031 8-8 8zm-24-16h16v-32h-16zm0 0" fill="#fdbd40"/><path d="m432 264h-32c-4.417969 0-8-3.582031-8-8v-48c0-4.417969 3.582031-8 8-8h32c4.417969 0 8 3.582031 8 8v48c0 4.417969-3.582031 8-8 8zm-24-16h16v-32h-16zm0 0" fill="#fdbd40"/><path d="m312 200h16v16h-16zm0 0" fill="#fdbd40"/><path d="m312 248h16v16h-16zm0 0" fill="#fdbd40"/><path d="m376 264h-16v-48h-16v-16h24c4.417969 0 8 3.582031 8 8zm0 0" fill="#fdbd40"/><path d="m440 72h-16v-32h-32v-16h40c4.417969 0 8 3.582031 8 8zm0 0" fill="#fdbd40"/><path d="m360 24h16v16h-16zm0 0" fill="#fdbd40"/><path d="m0 288h464v64h-464zm0 0" fill="#394d5c"/><g fill="#aabece"><path d="m216 312h32v16h-32zm0 0"/><path d="m424 312h16v40h-16zm0 0"/><path d="m392 312h16v40h-16zm0 0"/><path d="m360 312h16v40h-16zm0 0"/><path d="m328 312h16v40h-16zm0 0"/><path d="m120 312h16v40h-16zm0 0"/><path d="m88 312h16v40h-16zm0 0"/><path d="m56 312h16v40h-16zm0 0"/><path d="m24 312h16v40h-16zm0 0"/></g></svg>