<svg height="472pt" viewBox="0 -3 472 471" width="472pt" xmlns="http://www.w3.org/2000/svg"><path d="m440 384.5-32-64h-32l-16 32h-40l-40 80-32-64h-32l-28 56-12-24h-16l-16 32-48-80h-48l-48 80v32h464v-80zm0 0" fill="#fdbd40"/><path d="m181.3125 80.5c30.128906 0 41.878906 11.921875 57.6875 21.207031 11.289062-32.546875 17.035156-66.757812 17-101.207031h-256v81.328125c34.023438 6.015625 39.328125 30.671875 82.625 30.671875 49.375 0 49.375-32 98.6875-32zm0 0" fill="#db527d"/><path d="m82.625 160.5c-43.296875 0-48.601562-24.65625-82.625-30.671875v174.671875c95.980469-17.101562 178.441406-78.097656 222.878906-164.871094-12.464844-7.699218-26.921875-11.570312-41.566406-11.128906-49.3125 0-49.3125 32-98.6875 32zm0 0" fill="#db527d"/><g fill="#394d5c"><path d="m32.980469 428.558594 24.027343-39.980469 13.710938 8.242187-24.023438 39.976563zm0 0"/><path d="m440 440.5h-56c-4.417969 0-8-3.582031-8-8v-40h16v32h48zm0 0"/><path d="m304 424.5h16v16h-16zm0 0"/><path d="m336 408.5h16v16h-16zm0 0"/><path d="m80 424.5h32v16h-32zm0 0"/><path d="m216 416.5h16v16h-16zm0 0"/></g><path d="m181.3125 80.5c-49.3125 0-49.3125 32-98.6875 32-43.296875 0-48.601562-24.65625-82.625-30.671875v48c34.023438 6.015625 39.328125 30.671875 82.625 30.671875 49.34375 0 49.34375-32 98.6875-32 14.65625-.449219 29.125 3.421875 41.597656 11.128906 6.226563-12.261718 11.609375-24.929687 16.121094-37.921875-15.832031-9.285156-27.589844-21.207031-57.71875-21.207031zm0 0" fill="#fdbd40"/><path d="m472 160.5c0 22.089844-17.910156 40-40 40s-40-17.910156-40-40 17.910156-40 40-40 40 17.910156 40 40zm0 0" fill="#36afad"/><path d="m280 272.5c0 13.253906-10.746094 24-24 24s-24-10.746094-24-24 10.746094-24 24-24 24 10.746094 24 24zm0 0" fill="#36afad"/><path d="m40 216.5h16v16h-16zm0 0" fill="#fff"/><path d="m56 184.5h16v16h-16zm0 0" fill="#fff"/><path d="m216 40.5h16v16h-16zm0 0" fill="#fff"/><path d="m168 24.5h16v16h-16zm0 0" fill="#fff"/><path d="m360 40.5h16v16h-16zm0 0" fill="#36afad"/><path d="m240 152.5h16v16h-16zm0 0" fill="#36afad"/></svg>