<svg height="464pt" viewBox="-56 0 464 464.0127" width="464pt" xmlns="http://www.w3.org/2000/svg"><g fill="#db527d"><path d="m256.160156 128.011719v-32c0-8.835938-7.164062-16-16-16h-32c-8.835937 0-16 7.164062-16 16h-32c0-8.835938-7.164062-16-16-16h-32c-8.835937 0-16 7.164062-16 16v32h-16v64h192v-64zm0 0"/><path d="m48.160156 224.011719v-48h-32v80h120v-32zm0 0"/><path d="m304.160156 176.011719v48h-88v32h120v-80zm0 0"/><path d="m136.160156 336.011719-32 48v48h32v-48l32-48zm0 0"/><path d="m216.160156 336.011719 32 48v48h-32v-48l-32-48zm0 0"/></g><path d="m112.160156 16.011719h-52.441406c-7.242188-12.542969-22.003906-18.65625-35.996094-14.910157-13.988281 3.75-23.7148435 16.429688-23.7148435 30.910157 0 14.484375 9.7265625 27.160156 23.7148435 30.910156 13.992188 3.75 28.753906-2.367187 35.996094-14.910156h44.441406c4.417969 0 8 3.582031 8 8v24h32v-32c0-17.671875-14.328125-32-32-32zm0 0" fill="#36afad"/><path d="m328.160156.996094c-13.882812-3.554688-28.429687 2.589844-35.5625 15.015625h-52.4375c-17.675781 0-32 14.328125-32 32v32h32v-24c0-4.417969 3.582032-8 8-8h44.4375c7.285156 12.539062 22.09375 18.601562 36.078125 14.773437 13.984375-3.832031 23.640625-16.59375 23.515625-31.09375-.121094-14.5-9.984375-27.097656-24.03125-30.695312zm0 0" fill="#36afad"/><path d="m216.160156 258.757812v-66.746093h-80v66.746093c0 8.488282-3.375 16.628907-9.378906 22.632813l-15.589844 15.589844c-4.503906 4.503906-7.03125 10.609375-7.03125 16.976562.003906 12.179688 9.875 22.050781 22.054688 22.054688h99.886718c12.179688-.003907 22.054688-9.875 22.058594-22.054688 0-6.367187-2.53125-12.472656-7.03125-16.976562l-15.59375-15.589844c-6.003906-6.003906-9.375-14.144531-9.375-22.632813zm0 0" fill="#36afad"/><path d="m120.160156 152.011719h112v16h-112zm0 0" fill="#fdbd40"/><path d="m48.160156 144.011719c0 8.835937-7.164062 16-16 16-8.835937 0-16-7.164063-16-16 0-8.835938 7.164063-16 16-16 8.835938 0 16 7.164062 16 16zm0 0" fill="#36afad"/><path d="m336.160156 144.011719c0 8.835937-7.164062 16-16 16-8.835937 0-16-7.164063-16-16 0-8.835938 7.164063-16 16-16 8.835938 0 16 7.164062 16 16zm0 0" fill="#36afad"/><path d="m40.160156 432.011719h112v32h-112zm0 0" fill="#36afad"/><path d="m312.160156 464.011719h-112v-32h112zm0 0" fill="#36afad"/><path d="m120.160156 104.011719h16v16h-16zm0 0" fill="#fdbd40"/><path d="m216.160156 104.011719h16v16h-16zm0 0" fill="#fdbd40"/></svg>