<svg height="464pt" viewBox="0 -48 464 464" width="464pt" xmlns="http://www.w3.org/2000/svg"><path d="m32 328-32-8v-272l32-8 16 120v48zm0 0" fill="#394d5c"/><path d="m432 40 32 8v272l-32 8-16-120v-48zm0 0" fill="#394d5c"/><g fill="#aabece"><path d="m112 216-64-8v-48l64-8zm0 0"/><path d="m112 32-112 16v-32l112-16zm0 0"/><path d="m112 368-112-16v-32l112 16zm0 0"/><path d="m352 152 64 8v48l-64 8zm0 0"/><path d="m352 336 112-16v32l-112 16zm0 0"/><path d="m352 0 112 16v32l-112-16zm0 0"/></g><path d="m360 184c0 70.691406-57.308594 128-128 128s-128-57.308594-128-128 57.308594-128 128-128 128 57.308594 128 128zm0 0" fill="#394d5c"/><path d="m312 184c0 44.183594-35.816406 80-80 80s-80-35.816406-80-80 35.816406-80 80-80 80 35.816406 80 80zm0 0" fill="#36afad"/><path d="m232 240v-16c4.539062.007812 9.046875-.761719 13.328125-2.273438l5.34375 15.082032c-5.996094 2.117187-12.3125 3.195312-18.671875 3.191406zm0 0" fill="#fff"/><path d="m262.976562 230.664062-8.863281-13.328124c14.703125-9.753907 21.28125-27.988282 16.1875-44.882813s-20.65625-28.457031-38.300781-28.453125v-16c24.703125-.007812 46.492188 16.171875 53.628906 39.824219 7.136719 23.648437-2.066406 49.183593-22.652344 62.839843zm0 0" fill="#fff"/></svg>