<svg height="480pt" viewBox="0 -8 480 480" width="480pt" xmlns="http://www.w3.org/2000/svg"><path d="m8 464 104-368h256l104 368zm0 0" fill="#db527d"/><path d="m472 104c-13.253906 0-24-10.746094-24-24 0-4.417969-3.582031-8-8-8s-8 3.582031-8 8c0 13.253906-10.746094 24-24 24-4.417969 0-8 3.582031-8 8s3.582031 8 8 8c13.253906 0 24 10.746094 24 24 0 4.417969 3.582031 8 8 8s8-3.582031 8-8c0-13.253906 10.746094-24 24-24 4.417969 0 8-3.582031 8-8s-3.582031-8-8-8zm-32 16.246094c-2.332031-3.136719-5.109375-5.914063-8.246094-8.246094 3.136719-2.332031 5.914063-5.109375 8.246094-8.246094 2.332031 3.136719 5.109375 5.914063 8.246094 8.246094-3.136719 2.332031-5.914063 5.109375-8.246094 8.246094zm0 0" fill="#fdbd40"/><path d="m72 136c-13.253906 0-24-10.746094-24-24 0-4.417969-3.582031-8-8-8s-8 3.582031-8 8c0 13.253906-10.746094 24-24 24-4.417969 0-8 3.582031-8 8s3.582031 8 8 8c13.253906 0 24 10.746094 24 24 0 4.417969 3.582031 8 8 8s8-3.582031 8-8c0-13.253906 10.746094-24 24-24 4.417969 0 8-3.582031 8-8s-3.582031-8-8-8zm-32 16.246094c-2.332031-3.136719-5.109375-5.914063-8.246094-8.246094 3.136719-2.332031 5.914063-5.109375 8.246094-8.246094 2.332031 3.136719 5.109375 5.914063 8.246094 8.246094-3.136719 2.332031-5.914063 5.109375-8.246094 8.246094zm0 0" fill="#fdbd40"/><path d="m112 64h256v32h-256zm0 0" fill="#394d5c"/><path d="m368 64h-256l-104-64h464zm0 0" fill="#36afad"/><path d="m104 272h80v80h-80zm0 0" fill="#f6bf9b"/><path d="m216 272h80v80h-80zm0 0" fill="#394d5c"/><path d="m328 320v-64h48v-32h-80v128h48v48h32v-80zm0 0" fill="#f6bf9b"/><path d="m248 272h-32l-32-64h32zm0 0" fill="#f6bf9b"/><path d="m248 352h-32l-32 64h32zm0 0" fill="#f6bf9b"/><path d="m152 296h32v32h-32zm0 0" fill="#394d5c"/><g fill="#fff"><path d="m208 120h16v48h-16zm0 0"/><path d="m176 144h16v32h-16zm0 0"/><path d="m344 168h16v32h-16zm0 0"/><path d="m96 216h16v16h-16zm0 0"/><path d="m256 408h16v16h-16zm0 0"/></g></svg>