<svg height="464pt" viewBox="0 -28 464 464" width="464pt" xmlns="http://www.w3.org/2000/svg"><path d="m440 168-96 32-112-80-112 80-96-32-24 24 204.6875 204.6875c7.246094 7.242188 17.070312 11.3125 27.3125 11.3125s20.066406-4.070312 27.3125-11.3125l204.6875-204.6875zm0 0" fill="#394d5c"/><path d="m288 280c0 30.929688-25.070312 40-56 40s-56-9.070312-56-40 25.070312-72 56-72 56 41.070312 56 72zm0 0" fill="#36afad"/><path d="m232 296v-16c5.359375.136719 10.71875-.382812 15.953125-1.550781-1.25-10.636719-5.980469-20.5625-13.449219-28.234375l10.992188-11.621094c11.09375 11.023438 17.691406 25.785156 18.503906 41.40625.097656 2.589844-.363281 5.167969-1.34375 7.566406-.667969 1.335938-1.695312 2.460938-2.96875 3.242188-8.582031 4.222656-18.15625 6.019531-27.6875 5.191406zm15.894531-14.398438" fill="#fff"/><path d="m48 176 15.871094-21.167969c4.929687-6.558593 13.304687-9.535156 21.265625-7.550781 10.558593 2.644531 17.179687 13.109375 15.046875 23.78125l-4.183594 20.9375zm0 0" fill="#aabece"/><path d="m416 176-15.871094-21.167969c-4.929687-6.558593-13.304687-9.535156-21.265625-7.550781-10.558593 2.644531-17.179687 13.109375-15.046875 23.78125l4.183594 20.9375zm0 0" fill="#aabece"/><path d="m224 120h16v64h-16zm0 0" fill="#aabece"/><g fill="#fdbd40"><path d="m40 152c-3.234375 0-6.152344-1.949219-7.390625-4.9375s-.550781-6.429688 1.734375-8.71875l80-80c3.140625-3.03125 8.128906-2.988281 11.214844.097656 3.085937 3.085938 3.128906 8.074219.097656 11.214844l-80 80c-1.5 1.5-3.535156 2.34375-5.65625 2.34375zm0 0"/><path d="m144 48c-3.234375 0-6.152344-1.949219-7.390625-4.9375s-.550781-6.429688 1.734375-8.71875l16-16c3.140625-3.03125 8.128906-2.988281 11.214844.097656 3.085937 3.085938 3.128906 8.074219.097656 11.214844l-16 16c-1.5 1.5-3.535156 2.34375-5.65625 2.34375zm0 0"/><path d="m424 152c-2.121094 0-4.15625-.84375-5.65625-2.34375l-80-80c-3.03125-3.140625-2.988281-8.128906.097656-11.214844 3.085938-3.085937 8.074219-3.128906 11.214844-.097656l80 80c2.285156 2.289062 2.972656 5.730469 1.734375 8.71875s-4.15625 4.9375-7.390625 4.9375zm0 0"/><path d="m320 48c-2.121094 0-4.15625-.84375-5.65625-2.34375l-16-16c-3.03125-3.140625-2.988281-8.128906.097656-11.214844 3.085938-3.085937 8.074219-3.128906 11.214844-.097656l16 16c2.285156 2.289062 2.972656 5.730469 1.734375 8.71875s-4.15625 4.9375-7.390625 4.9375zm0 0"/><path d="m232 96c-4.417969 0-8-3.582031-8-8v-32c0-4.417969 3.582031-8 8-8s8 3.582031 8 8v32c0 4.417969-3.582031 8-8 8zm0 0"/><path d="m232 32c-4.417969 0-8-3.582031-8-8v-16c0-4.417969 3.582031-8 8-8s8 3.582031 8 8v16c0 4.417969-3.582031 8-8 8zm0 0"/><path d="m128 176c-2.949219-.003906-5.660156-1.628906-7.050781-4.230469-1.386719-2.601562-1.234375-5.753906.402343-8.210937l32-48c2.453126-3.675782 7.421876-4.667969 11.097657-2.214844s4.667969 7.421875 2.214843 11.097656l-32 48c-1.484374 2.226563-3.988281 3.5625-6.664062 3.558594zm0 0"/><path d="m336 176c-2.675781.003906-5.179688-1.332031-6.664062-3.558594l-32-48c-2.453126-3.675781-1.460938-8.644531 2.214843-11.097656s8.644531-1.460938 11.097657 2.214844l32 48c1.636718 2.457031 1.789062 5.609375.402343 8.210937-1.390625 2.601563-4.101562 4.226563-7.050781 4.230469zm0 0"/></g></svg>