<svg height="464pt" viewBox="-80 0 464 464" width="464pt" xmlns="http://www.w3.org/2000/svg"><path d="m16 272h272c8.835938 0 16 7.164062 16 16v176h-304v-176c0-8.835938 7.164062-16 16-16zm0 0" fill="#fdbd40"/><path d="m48 32v120l32 8v80h48l24-16 24 16h48v-80l32-24v-104zm0 0" fill="#db527d"/><path d="m80 240h48l24-16 24 16h48v32h-144zm0 0" fill="#36afad"/><g fill="#fdbd40"><path d="m192 32h-80l8-32h64zm0 0"/><path d="m128 176c0 8.835938-7.164062 16-16 16s-16-7.164062-16-16 7.164062-16 16-16 16 7.164062 16 16zm0 0"/><path d="m208 176c0 8.835938-7.164062 16-16 16s-16-7.164062-16-16 7.164062-16 16-16 16 7.164062 16 16zm0 0"/></g><path d="m56 208h24v112c0 26.507812-21.492188 48-48 48v-136c0-13.253906 10.746094-24 24-24zm0 0" fill="#394d5c"/><path d="m272 368c-26.507812 0-48-21.492188-48-48v-112h24c13.253906 0 24 10.746094 24 24zm0 0" fill="#394d5c"/><path d="m112 272h80v32h-80zm0 0" fill="#394d5c"/><path d="m136 304h32v160h-32zm0 0" fill="#db527d"/><path d="m40 392h16v72h-16zm0 0" fill="#db527d"/><path d="m248 392h16v72h-16zm0 0" fill="#db527d"/></svg>