<svg height="464pt" viewBox="-40 0 464 464" width="464pt" xmlns="http://www.w3.org/2000/svg"><path d="m80 0h160v144h-160zm0 0" fill="#f6bf9b"/><path d="m304 256h48v64h-48zm0 0" fill="#f6bf9b"/><g fill="#36afad"><path d="m352 120h16v16h-16zm0 0"/><path d="m352 152h16v16h-16zm0 0"/><path d="m336 136h16v16h-16zm0 0"/><path d="m368 136h16v16h-16zm0 0"/><path d="m288 104h16v16h-16zm0 0"/><path d="m288 136h16v16h-16zm0 0"/><path d="m272 120h16v16h-16zm0 0"/><path d="m304 120h16v16h-16zm0 0"/></g><path d="m120 176 40 80 40-80zm0 0" fill="#94b1c4"/><path d="m160 256-48-16 8-64zm0 0" fill="#fff"/><path d="m160 256 48-16-8-64zm0 0" fill="#fff"/><path d="m152 176-8 48 16 32 16-32-8-48zm0 0" fill="#394d5c"/><path d="m80 176h40l-8 64 48 16v112l-24 16h-56zm0 0" fill="#c5dae8"/><path d="m240 176h-40l8 64-48 16v112l24 16h56zm0 0" fill="#d7e9f4"/><path d="m48 176h32v80h-32zm0 0" fill="#aabece"/><path d="m0 256h80v96h-80zm0 0" fill="#fdbd40"/><path d="m0 288h32v32h-32zm0 0" fill="#db527d"/><path d="m112 384v48h48v-64l-24 16zm0 0" fill="#aabece"/><path d="m208 384v48h-48v-64l24 16zm0 0" fill="#94b1c4"/><path d="m160 432h-80v32h160v-32zm0 0" fill="#394d5c"/><path d="m272 272v-96h-32v128h64v-32zm0 0" fill="#aabece"/><path d="m312 224h32v32h-32zm0 0" fill="#db527d"/><path d="m312 320h32v32c0 8.835938-7.164062 16-16 16s-16-7.164062-16-16zm0 0" fill="#db527d"/><path d="m304 192h48c4.417969 0 8 3.582031 8 8v16c0 4.417969-3.582031 8-8 8h-48c-4.417969 0-8-3.582031-8-8v-16c0-4.417969 3.582031-8 8-8zm0 0" fill="#fdbd40"/><path d="m80 32v40c0 22.089844 17.910156 40 40 40s40-17.910156 40-40c0 22.089844 17.910156 40 40 40s40-17.910156 40-40v-40zm0 0" fill="#394d5c"/></svg>