<svg height="464pt" viewBox="0 -3 464 463" width="464pt" xmlns="http://www.w3.org/2000/svg"><path d="m368.625 272.5h-273.25c-9.714844 0-18.902344-4.414062-24.976562-12l-54.398438-68h432l-54.398438 68c-6.074218 7.585938-15.261718 12-24.976562 12zm0 0" fill="#fdbd40"/><path d="m464 128.5h-464v64h397.601562l-33.328124 40h-100.273438v16h104c2.371094 0 4.625-1.050781 6.144531-2.871094l40-48-6.144531-5.128906h56zm0 0" fill="#db527d"/><path d="m344 456.5c-3.535156 0-6.648438-2.320312-7.664062-5.703125l-46.289063-130.296875h-116.09375l-46.289063 130.296875c-1.269531 4.230469-5.726562 6.636719-9.960937 5.367187-4.230469-1.269531-6.636719-5.726562-5.367187-9.960937l48-136c1.015624-3.382813 4.128906-5.703125 7.664062-5.703125h128c3.535156 0 6.648438 2.320312 7.664062 5.703125l48 136c1.269532 4.234375-1.136718 8.691406-5.367187 9.960937-.746094.21875-1.519531.332032-2.296875.335938zm0 0" fill="#fdbd40"/><path d="m384 456.5c-3.03125 0-5.804688-1.710938-7.160156-4.425781l-32-64c-1.304688-2.558594-1.136719-5.621094.441406-8.023438 1.578125-2.398437 4.320312-3.769531 7.1875-3.589843 2.867188.179687 5.417969 1.882812 6.683594 4.464843l32 64c1.238281 2.476563 1.105468 5.421875-.351563 7.777344-1.457031 2.359375-4.027343 3.796875-6.800781 3.796875zm0 0" fill="#fdbd40"/><path d="m64 128.5s24-128 168-128 168 128 168 128zm0 0" fill="#36afad"/><g fill="#fff"><path d="m248 152.5h16v16h-16zm0 0"/><path d="m296 152.5h16v16h-16zm0 0"/><path d="m344 152.5h16v16h-16zm0 0"/><path d="m392 152.5h16v16h-16zm0 0"/><path d="m440 152.5h16v16h-16zm0 0"/><path d="m200 152.5h16v16h-16zm0 0"/><path d="m152 152.5h16v16h-16zm0 0"/><path d="m104 152.5h16v16h-16zm0 0"/><path d="m56 152.5h16v16h-16zm0 0"/><path d="m8 152.5h16v16h-16zm0 0"/><path d="m346.550781 100.546875c-3.09375-5.257813-6.570312-10.28125-10.398437-15.03125l12.464844-10.03125c4.308593 5.359375 8.21875 11.03125 11.695312 16.96875zm0 0"/><path d="m322.695312 71.339844c-23.09375-20.441406-53.617187-30.839844-90.695312-30.839844v-16c41.113281 0 75.199219 11.734375 101.3125 34.871094zm0 0"/></g><path d="m160 272.5h144v32h-144zm0 0" fill="#394d5c"/><path d="m200 408.5h16v16h-16zm0 0" fill="#db527d"/><path d="m232 392.5h16v16h-16zm0 0" fill="#db527d"/><path d="m264 328.5h16v16h-16zm0 0" fill="#db527d"/><path d="m232 232.5h16v16h-16zm0 0" fill="#db527d"/><path d="m96 416.5c-2.773438 0-5.34375-1.4375-6.800781-3.796875-1.457031-2.355469-1.589844-5.300781-.351563-7.777344l32-64c1.976563-3.957031 6.78125-5.5625 10.738282-3.585937 3.953124 1.976562 5.558593 6.78125 3.582031 10.734375l-32 64c-1.355469 2.714843-4.132813 4.429687-7.167969 4.425781zm0 0" fill="#fdbd40"/></svg>