<svg height="464pt" viewBox="-56 0 464 464.12027" width="464pt" xmlns="http://www.w3.org/2000/svg"><path d="m96.058594 208.121094-80 16-16.0000002-40 16.0000002-24h80zm0 0" fill="#238892"/><path d="m256.058594 208.121094 80 16 16-40-16-24h-80zm0 0" fill="#238892"/><path d="m256.058594 304.121094-80 32-80-32v-208h160zm0 0" fill="#36afad"/><path d="m152.058594 24.121094c.058594-11.042969-7.429688-20.699219-18.140625-23.394532-10.707031-2.695312-21.875 2.265626-27.054688 12.015626-5.179687 9.753906-3.035156 21.785156 5.195313 29.144531v54.234375h32v-54.234375c5.078125-4.511719 7.988281-10.972657 8-17.765625zm0 0" fill="#238892"/><path d="m248.058594 24.121094c.058594-11.042969-7.429688-20.699219-18.140625-23.394532-10.707031-2.695312-21.875 2.265626-27.054688 12.015626-5.179687 9.753906-3.035156 21.785156 5.195313 29.144531v54.234375h32v-54.234375c5.078125-4.511719 7.988281-10.972657 8-17.765625zm0 0" fill="#238892"/><path d="m216.058594 128.121094c0 22.089844-17.90625 40-40 40-22.089844 0-40-17.910156-40-40 0-22.09375 17.910156-40 40-40 22.09375 0 40 17.90625 40 40zm0 0" fill="#fdbd40"/><path d="m136.058594 128.121094c0 22.089844-17.90625 40-40 40-22.089844 0-40-17.910156-40-40 0-22.09375 17.910156-40 40-40 22.09375 0 40 17.90625 40 40zm0 0" fill="#fdbd40"/><path d="m296.058594 128.121094c0 22.089844-17.90625 40-40 40-22.089844 0-40-17.910156-40-40 0-22.09375 17.910156-40 40-40 22.09375 0 40 17.90625 40 40zm0 0" fill="#fdbd40"/><path d="m168.058594 120.121094h16v16h-16zm0 0" fill="#394d5c"/><path d="m88.058594 120.121094h16v16h-16zm0 0" fill="#394d5c"/><path d="m248.058594 120.121094h16v16h-16zm0 0" fill="#394d5c"/><g fill="#fff"><path d="m136.90625 259.695312 14.3125-7.15625 16 32-14.3125 7.15625zm0 0"/><path d="m184.90625 284.542969 16-32 14.3125 7.15625-16 31.996093zm0 0"/><path d="m32.058594 184.121094h64v16h-64zm0 0"/><path d="m256.058594 184.121094h64v16h-64zm0 0"/></g><path d="m80.058594 368.121094h192v96h-192zm0 0" fill="#394d5c"/><path d="m104.058594 368.121094 72 64 72-64zm0 0" fill="#fdbd40"/><path d="m64.058594 368.121094h16v96h-40v-72c0-13.253906 10.746094-24 24-24zm0 0" fill="#238892"/><path d="m312.058594 464.121094h-40v-96h16c13.257812 0 24 10.746094 24 24zm0 0" fill="#238892"/></svg>