<svg height="464pt" viewBox="-128 0 464 464.00896" width="464pt" xmlns="http://www.w3.org/2000/svg"><path d="m127.15625 50.066406-4.886719-34.21875c-1.296875-9.089844-9.082031-15.847656-18.265625-15.847656s-16.96875 6.757812-18.261718 15.847656l-4.890626 34.21875c-46.277343 8.101563-80.84765575 39.886719-80.84765575 77.941406 0 33.273438 26.40234375 61.792969 63.99999975 73.847657v38.152343h80v-38.152343c37.601563-12.054688 64-40.574219 64-73.847657 0-38.054687-34.566406-69.839843-80.847656-77.941406zm0 0" fill="#36afad"/><path d="m88.003906 240.007812h32v64h-32zm0 0" fill="#394d5c"/><path d="m32.003906 304.007812h144c13.253906 0 24 10.746094 24 24v136h-192v-136c0-13.253906 10.746094-24 24-24zm0 0" fill="#36afad"/><g fill="#394d5c"><path d="m32.003906 344.007812h16v120h-16zm0 0"/><path d="m160.003906 344.007812h16v120h-16zm0 0"/><path d="m64.003906 328.007812h32v16h-32zm0 0"/><path d="m112.003906 328.007812h32v16h-32zm0 0"/><path d="m96.003906 360.007812h16v48h-16zm0 0"/></g><path d="m80.003906 128.007812c0 13.257813-10.746094 24-24 24s-24-10.742187-24-24c0-13.253906 10.746094-24 24-24s24 10.746094 24 24zm0 0" fill="#fdbd40"/><path d="m176.003906 128.007812c0 13.257813-10.746094 24-24 24s-24-10.742187-24-24c0-13.253906 10.746094-24 24-24s24 10.746094 24 24zm0 0" fill="#fdbd40"/><path d="m96.003906 192.007812h16v16h-16zm0 0" fill="#394d5c"/></svg>