<svg height="464pt" viewBox="-31 0 463 464" width="464pt" xmlns="http://www.w3.org/2000/svg"><path d="m16.5 48h368v416h-368zm0 0" fill="#394d5c"/><path d="m.5 0h400v48h-400zm0 0" fill="#fdbd40"/><path d="m264.5 80h-152v96h48v48h-32v32h32v32h-16c-8.835938 0-16 7.164062-16 16v64h32v-32h80v32c0 8.835938-7.164062 16-16 16-17.671875 0-32 14.328125-32 32h48c17.671875 0 32-14.328125 32-32v-168c0-22.089844-17.910156-40-40-40h32c13.253906 0 24-10.746094 24-24v-48c0-13.253906-10.746094-24-24-24zm0 0" fill="#db527d"/><path d="m192.5 232h-32v-16h24v-16h16v24c0 4.417969-3.582031 8-8 8zm0 0" fill="#fdbd40"/><path d="m224.5 264h-64v-16h56v-48h16v56c0 4.417969-3.582031 8-8 8zm0 0" fill="#fdbd40"/><path d="m131.703125 121.59375 32.003906-23.992188 9.589844 12.796876-32.003906 23.992187zm0 0" fill="#394d5c"/><path d="m160.5 280h40v16h-40zm0 0" fill="#fdbd40"/><g fill="#fff"><path d="m344.5 232h16v232h-16zm0 0"/><path d="m344.5 200h16v16h-16zm0 0"/><path d="m344.5 48h16v136h-16zm0 0"/><path d="m120.5 440h-72c-4.417969 0-8-3.582031-8-8v-72h16v64h64zm0 0"/><path d="m40.5 328h16v16h-16zm0 0"/><path d="m136.5 424h16v16h-16zm0 0"/></g><path d="m80.5 208c0 8.835938-7.164062 16-16 16s-16-7.164062-16-16 7.164062-16 16-16 16 7.164062 16 16zm0 0" fill="#fdbd40"/><path d="m88.5 304c-8.835938 0-16-7.164062-16-16s7.164062-16 16-16 16 7.164062 16 16-7.164062 16-16 16zm0-16" fill="#fff"/><path d="m296.5 296h16v16h-16zm0 0" fill="#fff"/></svg>