<svg height="464pt" viewBox="-80 0 464 464" width="464pt" xmlns="http://www.w3.org/2000/svg"><path d="m280 464h-256v-40c0-13.253906 10.746094-24 24-24h64l40 32 40-32h64c13.253906 0 24 10.746094 24 24zm0 0" fill="#db527d"/><path d="m288 184h-25.601562l-9.597657-24h35.199219c8.835938 0 16-7.164062 16-16s-7.164062-16-16-16h-48v-64h-48v48h-80v-48h-48v64h-48c-8.835938 0-16 7.164062-16 16s7.164062 16 16 16h35.199219l-9.597657 24h-25.601562c-8.835938 0-16 7.164062-16 16s7.164062 16 16 16h16v56h240v-56h16c8.835938 0 16-7.164062 16-16s-7.164062-16-16-16zm0 0" fill="#36afad"/><g fill="#238892"><path d="m128 40c0 22.089844-17.910156 40-40 40s-40-17.910156-40-40 17.910156-40 40-40 40 17.910156 40 40zm0 0"/><path d="m256 40c0 22.089844-17.910156 40-40 40s-40-17.910156-40-40 17.910156-40 40-40 40 17.910156 40 40zm0 0"/><path d="m32 272 56 48 24 80 40 32 40-32 24-80 56-48zm0 0"/></g><path d="m80 24h16v32h-16zm0 0" fill="#fdbd40"/><path d="m208 24h16v32h-16zm0 0" fill="#fdbd40"/><path d="m136 312h32v16h-32zm0 0" fill="#fff"/><path d="m136 344h32v16h-32zm0 0" fill="#fff"/><path d="m136 376h32v16h-32zm0 0" fill="#fff"/><path d="m136 224c0-8.835938-10.746094-16-24-16s-24 7.164062-24 16 10.746094 16 24 16 24-7.164062 24-16zm0 0" fill="#fdbd40"/><path d="m216 224c0-8.835938-10.746094-16-24-16s-24 7.164062-24 16 10.746094 16 24 16 24-7.164062 24-16zm0 0" fill="#fdbd40"/></svg>